ply
format ascii 1.0
element vertex 23
property float x
property float y
property float z
property uchar diffuse_red
property uchar diffuse_green
property uchar diffuse_blue
end_header
0.513369 0.158776 -0.335221 0 255 0
1.52976 -0.356192 0.138913 0 255 0
3.35522 -1.05478 1.00167 255 0 255
6.49376 -0.0809936 -6.12764 0 255 0
4.74287 0.0873061 -7.10407 255 0 255
7.07171 0.0841784 -4.33235 255 0 255
7.12476 -0.00439961 -2.11316 255 0 255
5.33307 1.61218 -6.98476 0 255 0
5.39568 1.11867 -8.04075 255 0 255
4.42027 1.24502 -8.75643 255 0 255
3.66087 1.13156 -8.92262 255 0 255
2.85548 0.84768 -9.60423 0 255 0
1.92866 0.837369 -9.49561 255 0 255
0.180765 -0.303566 -8.36308 255 0 255
-1.04093 -0.00434121 -7.7873 255 0 255
-3.08159 -1.33197 -7.64204 255 0 255
-2.99695 -0.479276 -6.84929 0 255 0
-3.46823 -0.300004 -7.0195 255 0 255
-4.22669 -0.00892411 -6.45893 255 0 255
-4.23534 0.0319553 -5.12363 255 0 255
-4.58278 0.565277 -4.75631 255 0 255
3.3963 -1.02246 0.914911 0 255 0
-2.46563 0.0293351 -2.46373 0 255 0
