ply
format ascii 1.0
element vertex 15
property float x
property float y
property float z
end_header
3.35522 -1.05478 1.00167
4.74287 0.0873061 -7.10407
7.07171 0.0841784 -4.33235
7.12476 -0.00439961 -2.11316
5.39568 1.11867 -8.04075
4.42027 1.24502 -8.75643
3.66087 1.13156 -8.92262
1.92866 0.837369 -9.49561
0.180765 -0.303566 -8.36308
-1.04093 -0.00434121 -7.7873
-3.08159 -1.33197 -7.64204
-3.46823 -0.300004 -7.0195
-4.22669 -0.00892411 -6.45893
-4.23534 0.0319553 -5.12363
-4.58278 0.565277 -4.75631
