ply
format ascii 1.0
element vertex 12
property float x
property float y
property float z
property uchar diffuse_red
property uchar diffuse_green
property uchar diffuse_blue
end_header
-0.176632 -9.08592e-007 0.073845 0 255 0
0.879735 0.0795499 0.454771 255 0 255
1.32615 0.0460265 0.628278 255 0 255
-0.0564912 -0.171582 -0.0690101 0 255 0
-1.2642 -0.00870221 0.262907 255 0 255
-2.2374 -5.45375e-007 0.548442 255 0 255
-3.08488 0.051425 0.620973 255 0 255
-3.2758 -0.071233 1.42429 255 0 255
-3.34775 -0.0364153 1.68781 255 0 255
2.5552 -2.2692e-006 2.24948 255 0 255
2.31549 -0.0105636 1.70483 0 255 0
2.18036 0.0359591 1.3116 255 0 255
