ply
format ascii 1.0
element vertex 12
property float x
property float y
property float z
property uchar diffuse_red
property uchar diffuse_green
property uchar diffuse_blue
end_header
-0.192376 2.20602e-005 0.0693214 0 255 0
0.862675 0.0815849 0.454565 255 0 255
1.30865 0.0476162 0.627827 255 0 255
-0.0725881 -0.167166 -0.066574 0 255 0
-1.28076 -0.00888188 0.25736 255 0 255
-2.25589 -0.000142691 0.543104 255 0 255
-3.10392 0.0525441 0.616006 0 255 0
-3.29467 -0.0695349 1.42058 255 0 255
-3.36651 -0.0344562 1.68441 255 0 255
2.53679 9.67804e-005 2.24701 255 0 255
2.29724 -0.0101625 1.70293 0 255 0
2.16227 0.0364538 1.31012 255 0 255
